# xmcd
#
# Track frame offsets: 
#        150
#        22445
#        37624
#        51918
#        70017
#        88516
#        101943
#        115371
#        130290
#        150129
#        163741
#        176619
#        196561
#
# Disc length: 2726 seconds
#
# Revision: 0
# Processed by: cddbd v1.5.2PL0 Copyright (c) Steve Scherf et al.
# Submitted via: ExactAudioCopy v0.99pb5
#
DISCID=a40aa40d
DTITLE=Fisher-Price - Bundle of Joy
DYEAR=1900
DGENRE=Acid Jazz
TTITLE0=Neverland
TTITLE1=In My Daughter's Eyes
TTITLE2=Golden Slumbers
TTITLE3=Shenandoah 
TTITLE4=Cape Breton Lullaby
TTITLE5=Edelweiss
TTITLE6=Somewhere Over The Rainbow
TTITLE7=When You Wish Upon A Star
TTITLE8=Baby Mine
TTITLE9=Turn Around
TTITLE10=Brahms' Lullaby
TTITLE11=What A Wonderful World
TTITLE12=Stay Awake
EXTD=
EXTT0=
EXTT1=
EXTT2=
EXTT3=
EXTT4=
EXTT5=
EXTT6=
EXTT7=
EXTT8=
EXTT9=
EXTT10=
EXTT11=
EXTT12=
PLAYORDER=
